<?xml version="1.0" encoding="UTF-8"?>
<!DOCTYPE svg PUBLIC "-//W3C//DTD SVG 1.1//EN" "http://www.w3.org/Graphics/SVG/1.1/DTD/svg11.dtd">
<svg version="1.1" xmlns="http://www.w3.org/2000/svg" xmlns:xlink="http://www.w3.org/1999/xlink" x="0" y="0" width="519" height="452" viewBox="0, 0, 519, 452">
  <g id="Layer_1">
    <path d="M231.707,27.314 C231.782,30.553 234.471,33.118 237.711,33.04 C240.951,32.963 243.515,30.276 243.439,27.035 C243.361,23.796 240.672,21.232 237.433,21.307 C234.192,21.385 231.628,24.074 231.707,27.314 M245.137,98.469 C245.059,95.228 242.37,92.664 239.13,92.742 C235.891,92.818 233.327,95.509 233.404,98.749 C233.481,101.987 236.169,104.551 239.41,104.475 C242.649,104.398 245.215,101.708 245.137,98.469 M246.814,169.052 C246.737,165.812 244.049,163.248 240.808,163.326 C237.569,163.401 235.005,166.09 235.082,169.329 C235.159,172.571 237.848,175.134 241.087,175.058 C244.327,174.98 246.892,172.292 246.814,169.052 M219.886,11.015 C219.185,1.83 237.574,1.554 237.574,1.554 C237.574,1.554 255.956,0.956 255.69,10.163 C255.426,19.37 256.241,175.93 256.703,195.29 L227.674,195.979 C227.214,176.62 220.589,20.198 219.886,11.015 M255.844,199.991 L227.531,200.665 C227.531,200.665 228.914,218.065 228.083,223.897 C227.253,229.728 221.411,228.413 221.411,228.413 L229.098,409.185 L233.455,409.082 C233.455,409.082 234.585,252.96 234.509,249.733 C234.268,239.638 251.028,241.754 251.207,249.336 C251.284,252.564 259.832,408.453 259.832,408.453 L264.187,408.352 L263.277,227.419 C263.277,227.419 257.504,229.007 256.397,223.224 C255.291,217.438 255.844,199.991 255.844,199.991 M385.99,61.482 C388.909,64.212 393.487,64.059 396.217,61.141 C398.947,58.224 398.793,53.644 395.875,50.915 C392.958,48.186 388.379,48.338 385.649,51.256 C382.919,54.174 383.073,58.753 385.99,61.482 M260.939,148.233 C317.593,85.116 371.486,25.127 371.486,25.127 C387.825,6.93 407.568,25.955 410.175,27.839 C410.175,27.839 465.807,79.879 474.693,92.292 C463.854,127.252 360.844,252.273 315.61,280.606 L304.125,270.027 C314.33,261.861 324.08,253.215 333.541,244.314 C349.835,228.93 365.13,212.599 379.757,195.74 C394.314,178.815 408.176,161.309 420.97,143.045 C427.353,133.904 433.466,124.57 439.051,114.921 C441.852,110.103 444.486,105.184 446.855,100.139 C449.224,95.106 451.376,89.917 452.567,84.476 C451.142,89.857 448.778,94.915 446.205,99.819 C443.631,104.729 440.8,109.501 437.809,114.17 C431.842,123.514 425.364,132.525 418.626,141.329 C405.125,158.919 390.598,175.703 375.444,191.849 C360.218,207.926 344.382,223.422 327.691,237.855 C317.548,246.602 307.125,255.044 296.334,262.851 L268.817,237.506 L268.766,227.393 L268.087,223.725 L261.947,222.094 C261.92,222.1 261.863,222.109 261.773,222.113 C261.084,218.357 261.183,195.748 261.183,195.748 C261.053,190.245 260.976,171.654 260.939,148.233 M156.915,306.361 C153.996,303.632 149.417,303.785 146.688,306.7 C143.958,309.619 144.11,314.199 147.029,316.93 C149.948,319.657 154.525,319.507 157.255,316.589 C159.986,313.67 159.833,309.09 156.915,306.361 M222.616,223.059 L215.736,224.175 L216.33,238.109 C213.791,237.366 210.942,238.014 209.012,240.078 C206.282,242.997 206.436,247.574 209.353,250.304 C211.451,252.266 214.398,252.717 216.909,251.742 L217.466,264.836 L193.042,292.089 C196.525,299.443 195.753,313.416 176.768,331.529 C158.364,349.087 140.084,337.866 133.866,331.364 C127.67,325.57 117.062,309.153 133.218,290.786 C140.455,282.562 178.264,240.37 221.706,191.949 C221.803,194.428 221.881,196.477 221.939,197.988 L218.444,201.908 L222.446,206.757 C222.807,212.924 223.05,220.16 222.658,223.059 C222.644,223.059 222.628,223.059 222.616,223.059 M339.007,269.617 C331.473,276.142 324.542,281.488 318.524,285.259 L314.975,287.483 L268.855,245.002 L268.96,266.087 C282.848,277.438 297.009,288.464 311.544,298.979 C320.464,305.406 329.522,311.655 338.854,317.473 C343.535,320.356 348.267,323.16 353.133,325.72 C358.02,328.217 363.007,330.623 368.351,331.992 C362.967,330.781 357.887,328.511 352.917,326.15 C347.96,323.73 343.134,321.056 338.354,318.304 C328.827,312.745 319.566,306.749 310.434,300.567 C296.324,290.976 282.534,280.925 268.984,270.554 L269.053,284.554 C314.263,316.742 363.024,344.744 395.641,350.836 C385.796,327.416 364.557,298.652 339.007,269.617 M187.489,150.422 C185.098,148.233 181.387,148.396 179.198,150.785 C177.008,153.174 177.171,156.887 179.561,159.076 C181.952,161.264 185.664,161.101 187.852,158.712 C190.041,156.322 189.877,152.61 187.489,150.422 M148.737,114.928 C146.346,112.739 142.635,112.902 140.446,115.292 C138.257,117.683 138.418,121.393 140.809,123.582 C143.2,125.772 146.912,125.609 149.099,123.22 C151.289,120.828 151.125,117.117 148.737,114.928 M109.227,78.74 C106.836,76.552 103.125,76.715 100.936,79.105 C98.748,81.494 98.911,85.206 101.3,87.396 C103.69,89.584 107.401,89.42 109.591,87.031 C111.779,84.642 111.618,80.93 109.227,78.74 M187.347,192.616 C199.892,178.361 214.992,162.797 219.762,157.917 L215.744,156.522 C216.479,152.988 193.52,185.475 189.75,180.262 C181.489,168.843 166.086,156.513 155.263,151.109 C139.499,143.233 132.926,126.522 120.431,115.078 C101.451,97.694 91.443,115.546 78.808,100.313 C55.281,71.949 102.36,48.078 114.296,57.982 C124.563,66.501 199.51,135.783 220.276,154.999 C220.713,166.275 221.102,176.282 221.402,184.071 C214.589,191.664 207.894,199.125 201.415,206.35 C196.683,201.814 191.982,197.247 187.347,192.616 M246.689,268.079 C246.309,260.991 246.018,255.508 245.858,252.373 C244.258,251.083 242.67,249.784 241.078,248.486 C240.591,248.585 240.249,248.738 240.12,248.864 C240.037,248.943 239.987,249.24 239.996,249.603 C240.009,250.166 239.989,255.095 239.944,262.891 C242.171,264.62 244.42,266.352 246.689,268.079 M189.271,219.891 C191.903,216.957 194.574,213.978 197.298,210.94 C192.472,206.573 187.672,202.177 182.93,197.714 C180.263,200.84 177.804,203.83 175.716,206.528 C179.777,210.751 184.327,215.232 189.271,219.891 M269.203,314.225 L269.292,332.041 C273.315,331.942 277.337,331.88 281.36,331.898 C293.93,331.906 306.494,332.418 318.998,333.359 C326.298,333.949 333.573,334.711 340.813,335.626 C328.144,329.093 314.882,321.4 301.502,312.97 C294.647,313.025 287.795,313.205 280.953,313.54 C277.033,313.729 273.118,313.964 269.203,314.225 M239.478,333.701 C240.884,333.579 242.288,333.442 243.695,333.329 C245.862,333.165 248.032,333.03 250.203,332.89 C249.892,327.207 249.582,321.502 249.277,315.884 C246.045,316.212 242.819,316.57 239.593,316.96 C239.555,322.495 239.518,328.11 239.478,333.701 M438.031,260.305 L438.005,260.35 L437.92,260.502 C437.933,260.489 437.983,260.398 438.031,260.305 M516.683,169.179 C516.155,171.435 515.7,173.7 515.099,175.933 L514.07,179.26 C513.745,180.37 513.383,181.473 512.92,182.553 C511.34,186.903 509.178,191.224 506.467,195.187 C505.077,197.008 482.211,212.782 447.573,247.873 C445.141,250.338 442.942,252.831 441.03,255.437 C440.821,255.926 440.599,256.408 440.356,256.885 C440.054,257.419 439.776,257.962 439.399,258.48 C439.046,258.998 438.755,259.411 438.177,260.05 L438.134,260.122 C438.134,260.164 438.079,260.347 438.05,260.476 L437.88,261.169 C437.397,263.144 436.947,265.284 436.535,267.38 C435.163,274.564 425.701,311.962 422.984,328.298 C425.614,329.254 428.262,330.341 430.918,331.517 C431.373,331.451 431.718,331.57 431.907,331.953 C434.098,332.947 436.294,333.994 438.509,335.171 L444.735,338.66 C424.868,408.331 426.32,443.208 424.12,443.26 C423.027,443.3 421.971,443.182 421.038,442.97 L420.451,442.821 L419.965,442.685 L418.986,442.416 L416.979,441.88 L412.901,440.844 C410.167,440.166 407.412,439.516 404.645,438.897 C399.109,437.654 393.538,436.493 387.938,435.449 C376.742,433.331 365.458,431.556 354.127,430.123 C331.465,427.293 308.62,425.715 285.781,425.72 C274.365,425.747 262.939,426.022 251.562,426.881 C240.183,427.696 228.822,428.844 217.558,430.588 C194.987,433.857 172.778,439.294 151.232,446.641 L143.255,449.459 C143.255,449.459 141.839,423.796 140.792,416.788 C132.865,363.673 121.403,350.675 121.403,350.675 C121.403,350.675 127.815,347.965 132.798,346.006 L123.5,326.884 C125.422,330.285 127.752,333.139 130.003,335.269 C132.703,338.062 136.5,340.92 141.039,343.044 C145.491,345.13 150.653,346.508 156.201,346.413 C164.924,346.27 173.121,342.597 180.558,335.5 C183.988,332.226 186.843,329.092 189.228,326.096 C193.962,324.914 198.709,323.804 203.475,322.82 C208.901,321.689 214.347,320.699 219.803,319.792 L220.482,335.761 C215.755,336.383 211.042,337.075 206.358,337.913 C194.04,340.106 181.853,342.912 170.03,346.637 C166.728,347.663 163.464,348.787 160.24,349.985 C164.256,349.078 168.28,348.205 172.315,347.404 C179.137,346.024 186.012,344.908 192.892,343.927 C199.775,342.957 206.698,342.299 213.612,341.848 C206.752,342.867 199.941,344.089 193.195,345.613 C186.455,347.153 179.751,348.818 173.118,350.741 C166.479,352.638 159.887,354.682 153.352,356.877 C150.566,357.816 147.785,358.794 145.012,359.785 C145.129,360.341 145.242,360.896 145.355,361.451 C147.787,360.788 150.22,360.14 152.667,359.511 C159.347,357.815 166.063,356.284 172.808,354.914 C179.545,353.518 186.335,352.39 193.134,351.41 C199.937,350.432 206.78,349.787 213.612,349.34 C206.833,350.359 200.103,351.564 193.444,353.095 C186.787,354.634 180.169,356.309 173.625,358.243 C167.08,360.155 160.581,362.219 154.143,364.442 C151.586,365.33 149.038,366.257 146.493,367.192 C146.602,367.756 146.715,368.326 146.823,368.891 C149.015,368.275 151.209,367.673 153.417,367.087 C160.006,365.359 166.637,363.805 173.297,362.419 C179.951,361.008 186.66,359.87 193.376,358.89 C200.097,357.903 206.86,357.28 213.612,356.835 C206.916,357.847 200.265,359.037 193.69,360.578 C187.116,362.112 180.586,363.797 174.133,365.748 C167.677,367.673 161.271,369.754 154.932,372.008 C152.575,372.846 150.225,373.733 147.878,374.617 C147.982,375.196 148.074,375.774 148.175,376.35 C150.167,375.775 152.159,375.21 154.164,374.663 C160.665,372.9 167.209,371.323 173.785,369.924 C180.355,368.499 186.981,367.346 193.62,366.372 C200.257,365.378 206.942,364.768 213.612,364.326 C206.998,365.339 200.425,366.51 193.935,368.06 C187.444,369.588 181.002,371.286 174.639,373.247 C168.272,375.186 161.961,377.288 155.72,379.567 C153.528,380.372 151.338,381.207 149.155,382.052 C149.252,382.643 149.361,383.229 149.458,383.819 C151.269,383.278 153.083,382.749 154.908,382.235 C161.32,380.439 167.779,378.841 174.272,377.427 C180.757,375.989 187.301,374.821 193.859,373.854 C200.415,372.851 207.024,372.259 213.612,371.822 C207.078,372.828 200.584,373.984 194.18,375.537 C187.771,377.061 181.416,378.773 175.143,380.745 C168.866,382.694 162.65,384.819 156.508,387.126 C154.453,387.902 152.401,388.706 150.352,389.525 C150.446,390.119 150.537,390.716 150.627,391.312 C152.296,390.798 153.968,390.297 155.649,389.808 C161.971,387.975 168.346,386.359 174.755,384.928 C181.159,383.476 187.619,382.297 194.098,381.334 C200.572,380.321 207.103,379.751 213.612,379.314 C207.159,380.319 200.744,381.454 194.422,383.017 C188.097,384.534 181.829,386.256 175.647,388.241 C169.458,390.203 163.333,392.345 157.293,394.686 C155.352,395.438 153.414,396.22 151.479,397.013 C151.567,397.613 151.639,398.217 151.723,398.818 C153.272,398.327 154.826,397.851 156.39,397.381 C162.62,395.509 168.911,393.872 175.237,392.43 C181.557,390.963 187.936,389.77 194.337,388.814 C200.729,387.794 207.184,387.241 213.612,386.809 C207.238,387.813 200.902,388.926 194.665,390.495 C188.419,392.005 182.239,393.741 176.146,395.736 C170.047,397.711 164.016,399.866 158.079,402.241 C156.215,402.986 154.354,403.757 152.499,404.541 C152.577,405.144 152.668,405.744 152.743,406.347 C154.198,405.871 155.657,405.405 157.124,404.949 C163.265,403.04 169.472,401.382 175.716,399.925 C181.953,398.448 188.251,397.243 194.574,396.291 C200.886,395.268 207.263,394.732 213.612,394.3 C207.319,395.3 201.059,396.4 194.906,397.976 C188.741,399.476 182.646,401.223 176.644,403.228 C170.634,405.214 164.697,407.389 158.862,409.796 C157.04,410.545 155.221,411.322 153.407,412.114 C153.475,412.716 153.546,413.317 153.613,413.919 C155.023,413.442 156.436,412.977 157.858,412.52 C163.909,410.576 170.028,408.891 176.192,407.422 C182.348,405.93 188.564,404.713 194.809,403.769 C201.042,402.748 207.342,402.218 213.612,401.792 C207.397,402.788 201.218,403.878 195.145,405.453 C189.062,406.944 183.052,408.703 177.138,410.721 C171.219,412.713 165.375,414.912 159.642,417.348 C157.838,418.109 156.038,418.903 154.243,419.713 C154.304,420.311 154.365,420.908 154.422,421.506 C155.804,421.024 157.191,420.548 158.587,420.087 C164.549,418.11 170.582,416.392 176.666,414.915 C179.694,414.133 182.768,413.527 185.817,412.86 C188.897,412.317 191.947,411.662 195.043,411.248 C201.199,410.227 207.419,409.701 213.612,409.288 C207.476,410.273 201.373,411.359 195.383,412.929 C192.371,413.617 189.412,414.543 186.437,415.358 C183.493,416.296 180.537,417.165 177.631,418.21 C171.798,420.207 166.052,422.434 160.42,424.896 C158.587,425.693 156.759,426.529 154.939,427.378 C155.02,428.388 155.095,429.399 155.17,430.412 C174.647,423.612 194.654,418.335 214.94,414.762 C217.88,414.214 220.826,413.709 223.777,413.236 L223.843,414.799 L238.905,414.444 L238.929,411.117 C242.651,410.657 246.376,410.224 250.106,409.843 C251.533,409.692 252.961,409.576 254.389,409.442 L254.64,414.067 L269.706,413.713 L269.677,408.28 C274.953,407.974 280.233,407.734 285.514,407.562 C309.16,406.84 332.82,407.754 356.363,409.968 C361.566,410.467 366.76,411.046 371.949,411.682 C372.708,411.753 373.468,411.805 374.225,411.882 C380.53,412.498 386.825,413.242 393.106,414.113 C399.392,414.971 405.667,415.936 411.925,417.018 C412.568,417.129 413.208,417.255 413.848,417.366 L413.999,415.446 C413.237,415.234 412.476,415.005 411.714,414.794 C405.586,413.101 399.417,411.53 393.222,410.063 C387.026,408.58 380.798,407.239 374.538,406.023 C368.284,404.772 361.984,403.764 355.665,402.812 C362.04,403.197 368.428,403.635 374.791,404.327 C381.159,404.981 387.52,405.766 393.864,406.692 C400.207,407.604 406.542,408.627 412.856,409.775 C413.379,409.873 413.898,409.979 414.419,410.076 L414.451,409.669 C414.489,409.153 414.525,408.638 414.563,408.122 C413.91,407.935 413.258,407.733 412.606,407.548 C406.426,405.787 400.206,404.16 393.955,402.638 C387.706,401.105 381.416,399.721 375.098,398.468 C368.783,397.182 362.418,396.153 356.034,395.192 C362.475,395.587 368.926,396.045 375.357,396.773 C381.79,397.465 388.211,398.29 394.618,399.272 C401.023,400.242 407.417,401.32 413.788,402.539 C414.178,402.614 414.565,402.696 414.956,402.772 C415.003,402.109 415.053,401.447 415.099,400.786 C414.565,400.63 414.034,400.458 413.5,400.303 C407.269,398.479 400.995,396.794 394.687,395.22 C388.385,393.631 382.039,392.206 375.658,390.917 C369.282,389.593 362.852,388.543 356.401,387.569 C362.909,387.974 369.43,388.459 375.922,389.22 C382.419,389.95 388.909,390.817 395.372,391.855 C401.839,392.88 408.292,394.022 414.721,395.302 C414.969,395.353 415.217,395.408 415.464,395.458 C415.509,394.781 415.554,394.108 415.599,393.435 C415.197,393.311 414.795,393.179 414.393,393.058 C408.112,391.177 401.785,389.427 395.42,387.802 C389.063,386.157 382.658,384.693 376.218,383.363 C369.778,382.007 363.288,380.932 356.766,379.949 C363.343,380.36 369.931,380.872 376.489,381.67 C383.049,382.441 389.6,383.349 396.127,384.443 C402.655,385.519 409.165,386.722 415.654,388.069 C415.751,388.088 415.848,388.111 415.946,388.133 C415.99,387.442 416.025,386.756 416.067,386.066 C415.807,385.985 415.546,385.899 415.287,385.817 C408.954,383.871 402.575,382.067 396.158,380.383 C389.745,378.687 383.279,377.183 376.779,375.811 C370.279,374.42 363.723,373.317 357.136,372.328 C363.777,372.75 370.433,373.288 377.054,374.118 C383.681,374.932 390.297,375.879 396.882,377.031 C403.4,378.152 409.9,379.404 416.375,380.795 C416.414,380.092 416.46,379.385 416.496,378.685 C416.392,378.649 416.287,378.613 416.181,378.579 C409.797,376.572 403.366,374.704 396.893,372.97 C390.424,371.217 383.9,369.672 377.339,368.261 C370.777,366.836 364.16,365.704 357.501,364.707 C364.213,365.138 370.935,365.703 377.623,366.568 C384.311,367.422 390.991,368.413 397.636,369.62 C404.027,370.763 410.395,372.039 416.742,373.444 C416.775,372.719 416.809,371.992 416.839,371.27 C410.48,369.229 404.075,367.325 397.629,365.559 C391.106,363.749 384.519,362.165 377.9,360.711 C371.277,359.254 364.594,358.095 357.872,357.089 C364.649,357.523 371.437,358.119 378.191,359.021 C384.943,359.917 391.689,360.948 398.391,362.213 C404.633,363.371 410.854,364.664 417.05,366.078 C417.077,365.328 417.1,364.579 417.117,363.84 C410.911,361.812 404.66,359.912 398.365,358.149 C391.784,356.282 385.141,354.658 378.461,353.161 C371.777,351.672 365.028,350.481 358.239,349.467 C364.179,349.853 370.125,350.388 376.049,351.131 C382.655,353.425 388.883,355.157 394.634,356.232 L404.651,358.101 L403.651,355.722 C408.187,356.641 412.711,357.617 417.22,358.67 C417.225,358.268 417.235,357.853 417.228,357.461 L417.228,356.35 C412.154,354.665 407.043,353.079 401.909,351.575 C401.909,351.575 400.703,348.714 400.701,348.708 C396.773,339.362 391.135,329.28 384.24,318.768 C386.859,319.202 389.481,319.675 392.104,320.183 C391.977,319.942 391.866,319.697 391.738,319.456 C389.039,314.389 386.05,309.412 382.811,304.584 C381.229,302.146 379.511,299.792 377.864,297.386 L372.66,290.347 L367.267,283.43 L361.719,276.622 L367.911,282.86 L373.973,289.244 L379.881,295.789 C381.772,298.042 383.734,300.242 385.572,302.55 C389.324,307.108 392.858,311.864 396.167,316.836 C397.205,318.382 398.183,319.978 399.137,321.599 C399.569,321.695 400.001,321.797 400.433,321.895 C400.711,321.325 401,320.751 401.275,320.181 C401.029,319.323 400.759,318.462 400.47,317.603 C400.018,316.355 399.566,315.101 399.016,313.866 C398.514,312.618 397.939,311.389 397.344,310.166 C394.967,305.269 392.212,300.481 389.187,295.847 C387.695,293.513 386.083,291.254 384.516,288.961 C382.859,286.732 381.248,284.46 379.547,282.253 C377.819,280.071 376.125,277.85 374.36,275.69 L368.992,269.252 L374.998,275.115 C376.98,277.09 378.895,279.132 380.854,281.14 C382.783,283.178 384.635,285.288 386.535,287.361 C388.345,289.511 390.212,291.624 391.966,293.834 C395.518,298.222 398.843,302.825 401.864,307.701 C402.616,308.923 403.36,310.155 404.036,311.441 C404.294,311.893 404.533,312.361 404.778,312.827 C405.199,311.92 405.611,311.018 406.027,310.115 C405.883,309.434 405.719,308.751 405.542,308.069 C405.201,306.872 404.855,305.668 404.397,304.478 C403.999,303.275 403.498,302.095 402.99,300.913 C400.936,296.193 398.413,291.585 395.594,287.142 C394.192,284.915 392.682,282.745 391.189,280.561 C389.608,278.442 388.086,276.266 386.448,274.18 C384.786,272.113 383.168,269.998 381.459,267.96 L376.269,261.885 L382.089,267.376 C384.014,269.227 385.855,271.162 387.748,273.059 C389.618,274.976 391.381,276.993 393.208,278.963 C394.951,281.005 396.715,283.04 398.389,285.156 C401.752,289.38 404.873,293.837 407.602,298.631 C408.277,299.827 408.948,301.033 409.53,302.305 C409.948,301.345 410.363,300.384 410.775,299.427 C410.73,299.139 410.691,298.849 410.643,298.563 C410.409,297.423 410.175,296.275 409.81,295.133 C409.512,293.981 409.093,292.846 408.67,291.709 C406.95,287.169 404.651,282.741 402.038,278.482 C400.716,276.359 399.31,274.272 397.891,272.196 C396.382,270.182 394.951,268.1 393.365,266.129 C391.767,264.173 390.223,262.16 388.565,260.241 L383.543,254.513 L389.187,259.651 C391.056,261.377 392.826,263.215 394.656,264.998 C396.469,266.796 398.149,268.729 399.907,270.599 C401.585,272.537 403.252,274.497 404.854,276.52 C408.028,280.592 410.951,284.913 413.38,289.638 C413.655,290.178 413.927,290.722 414.19,291.273 C414.52,290.466 414.858,289.66 415.183,288.858 C415.326,288.502 415.458,288.15 415.598,287.798 C415.512,287.145 415.412,286.491 415.244,285.835 C415.051,284.74 414.728,283.651 414.382,282.565 C413.005,278.21 410.934,273.949 408.519,269.868 C407.277,267.846 405.976,265.841 404.622,263.869 C403.18,261.959 401.835,259.96 400.301,258.102 C398.762,256.258 397.29,254.336 395.678,252.535 L390.819,247.146 L396.292,251.937 C398.114,253.543 399.811,255.287 401.583,256.961 C403.345,258.647 404.942,260.499 406.637,262.27 C408.252,264.108 409.827,266.001 411.355,267.937 C414.133,271.58 416.662,275.48 418.704,279.748 C419.301,278.162 419.893,276.574 420.472,274.985 L420.119,273.482 C419.097,269.322 417.264,265.221 415.038,261.312 C413.88,259.382 412.676,257.456 411.384,255.581 C410.008,253.771 408.747,251.851 407.261,250.105 C405.777,248.362 404.369,246.532 402.805,244.846 L398.093,239.775 L403.408,244.236 C405.182,245.729 406.814,247.378 408.531,248.952 C410.249,250.527 411.764,252.305 413.401,253.982 C414.957,255.73 416.445,257.557 417.902,259.418 C419.816,261.989 421.575,264.728 423.077,267.653 C423.49,266.455 423.913,265.262 424.321,264.052 L425.21,261.511 C424.402,258.556 423.133,255.626 421.601,252.816 C421.116,251.863 420.493,250.985 419.943,250.061 C419.353,249.16 418.856,248.192 418.185,247.342 C416.871,245.623 415.686,243.779 414.245,242.138 C412.812,240.495 411.466,238.749 409.943,237.171 L405.37,232.406 L410.535,236.548 C412.264,237.931 413.835,239.496 415.501,240.971 C417.177,242.442 418.621,244.148 420.201,245.741 C421.003,246.527 421.647,247.455 422.382,248.31 C423.08,249.197 423.849,250.03 424.49,250.969 C425.537,252.408 426.503,253.929 427.409,255.499 C427.511,255.279 427.639,255.019 427.71,254.899 L427.844,254.704 L428.11,254.316 L428.64,253.539 L430.68,250.591 C430.084,248.489 429.252,246.4 428.199,244.393 C427.784,243.468 427.176,242.637 426.67,241.749 C426.119,240.89 425.666,239.958 425.026,239.148 L423.188,236.649 C422.581,235.805 421.963,234.966 421.257,234.201 C419.87,232.65 418.58,230.988 417.092,229.509 L412.643,225.038 L417.675,228.878 C419.365,230.153 420.881,231.638 422.502,233.021 C423.324,233.701 424.069,234.464 424.804,235.238 L427.042,237.548 C427.818,238.299 428.426,239.199 429.129,240.023 C429.787,240.884 430.542,241.675 431.126,242.603 C432.107,243.986 433.017,245.448 433.825,246.984 C434.914,245.808 436.029,244.679 437.165,243.6 C436.863,241.067 436.064,238.476 434.829,236.037 C434.499,235.134 433.901,234.353 433.441,233.498 C432.927,232.676 432.507,231.782 431.909,231.002 L430.154,228.621 C429.574,227.817 428.987,227.016 428.3,226.295 C426.956,224.833 425.713,223.246 424.261,221.863 L419.919,217.669 L424.83,221.219 C426.481,222.399 427.951,223.807 429.532,225.1 C430.335,225.737 431.052,226.465 431.764,227.205 L433.927,229.409 C434.667,230.133 435.25,231.005 435.918,231.804 C436.542,232.643 437.291,233.393 437.803,234.328 C439.049,236.124 440.125,238.109 440.937,240.239 C441.48,239.773 442.029,239.32 442.575,238.869 C442.691,238.505 442.798,238.134 442.9,237.762 C443.59,234.619 443.013,231.047 441.482,227.758 C441.2,226.893 440.704,226.114 440.25,225.31 C439.776,224.517 439.376,223.671 438.834,222.909 L437.158,220.639 C436.6,219.872 436.045,219.096 435.376,218.42 C434.067,217.04 432.866,215.526 431.446,214.232 L427.192,210.3 L432,213.578 C433.616,214.664 435.047,215.997 436.594,217.211 C437.38,217.802 438.066,218.509 438.76,219.214 L440.863,221.325 C441.553,222.045 442.12,222.88 442.761,223.663 C443.378,224.462 444.042,225.234 444.517,226.157 C446.146,228.639 447.392,231.592 447.847,234.772 C448.037,234.631 448.227,234.489 448.417,234.349 C448.634,233.908 448.836,233.463 448.984,232.995 C449.335,232.2 449.51,231.361 449.701,230.513 C450.431,227.112 449.955,223.405 448.595,219.914 C448.035,218.107 446.983,216.489 446.078,214.779 C445.599,213.941 444.961,213.194 444.41,212.389 C443.819,211.611 443.301,210.765 442.64,210.034 C441.301,208.594 440.034,207.053 438.608,205.666 L434.188,201.61 L439.166,205.014 C440.796,206.2 442.294,207.564 443.88,208.849 C444.666,209.501 445.322,210.289 446.053,211.011 C446.748,211.763 447.525,212.457 448.162,213.273 C449.389,214.941 450.771,216.535 451.706,218.464 C453.408,221.475 454.582,224.977 454.798,228.649 C454.81,228.621 454.826,228.597 454.839,228.569 C455.56,226.902 456.253,225.163 456.536,223.333 C457.246,219.692 456.915,215.823 455.708,212.116 L454.678,209.351 L453.273,206.715 C452.844,205.805 452.262,204.984 451.663,204.167 L449.899,201.678 C448.555,200.15 447.199,198.602 445.777,197.103 L441.181,192.92 L446.339,196.457 C447.971,197.758 449.565,199.135 451.166,200.521 L453.347,202.84 C454.088,203.607 454.821,204.39 455.416,205.293 L457.319,207.923 L458.882,210.813 C460.551,214.228 461.586,218.095 461.672,222.062 C461.708,221.983 461.741,221.908 461.777,221.831 C462.484,220.023 463.082,218.143 463.398,216.207 C464.089,212.336 463.877,208.289 462.815,204.36 C461.616,200.476 459.651,196.759 457.113,193.379 C455.862,191.678 454.341,190.181 452.951,188.551 L448.175,184.229 L453.517,187.908 C455.127,189.351 456.885,190.678 458.409,192.254 C459.871,193.89 461.471,195.443 462.656,197.346 C464.042,199.115 464.996,201.162 466.04,203.192 C467.679,207.067 468.566,211.342 468.534,215.664 C468.603,215.478 468.677,215.294 468.745,215.108 C469.103,214.143 469.359,213.146 469.664,212.155 C469.865,211.147 470.133,210.141 470.292,209.117 C470.94,205.033 470.896,200.768 469.808,196.675 C469.661,195.615 469.173,194.662 468.867,193.64 L468.341,192.122 C468.134,191.63 467.87,191.162 467.635,190.681 C467.141,189.728 466.693,188.738 466.155,187.796 L464.319,185.098 C464.006,184.65 463.719,184.178 463.38,183.749 L462.293,182.515 L460.099,180.029 C458.527,178.481 456.822,177.051 455.168,175.538 C456.986,176.817 458.882,178.033 460.675,179.392 L463.221,181.624 L464.501,182.75 C464.908,183.146 465.263,183.59 465.646,184.01 L467.922,186.582 C468.611,187.495 469.224,188.473 469.882,189.428 C470.198,189.911 470.546,190.381 470.837,190.882 L471.618,192.442 C472.096,193.501 472.757,194.502 473.078,195.634 C474.822,199.92 475.526,204.639 475.417,209.328 C475.521,209.017 475.648,208.714 475.745,208.397 C476.105,207.375 476.3,206.31 476.591,205.26 C476.829,204.201 476.989,203.129 477.197,202.057 C477.836,197.752 477.739,193.321 476.794,189.024 C475.846,184.743 474.168,180.502 471.519,176.833 C470.374,174.86 468.729,173.273 467.251,171.515 C465.686,169.845 463.866,168.424 462.162,166.848 C464.03,168.192 466.041,169.396 467.835,170.885 C469.539,172.465 471.438,173.902 472.878,175.785 C476.1,179.258 478.477,183.537 480.095,188.087 C481.713,192.653 482.443,197.574 482.327,202.469 C482.317,202.625 482.311,202.78 482.301,202.935 C482.523,202.427 482.69,201.998 482.768,201.696 C483.369,199.512 483.787,197.275 484.096,195.019 C484.683,190.506 484.622,185.897 483.777,181.394 C483.509,180.286 483.412,179.111 483.004,178.039 L481.93,174.75 C480.928,172.686 480.103,170.468 478.711,168.583 C476.317,164.523 472.793,161.265 469.156,158.159 C473.115,160.795 477.11,163.671 480.1,167.576 C481.786,169.38 482.933,171.571 484.263,173.667 L485.835,177.039 C486.411,178.155 486.671,179.376 487.103,180.549 C488.602,185.307 489.28,190.343 489.231,195.363 C489.223,195.872 489.184,196.38 489.165,196.891 C489.493,196.074 489.736,195.412 489.832,195.002 C490.363,192.697 490.771,190.356 491.041,187.994 C491.584,183.278 491.57,178.475 490.779,173.773 C490.016,169.068 488.422,164.463 485.932,160.314 C483.494,156.123 480.055,152.507 476.149,149.469 C480.371,152.032 484.308,155.285 487.351,159.349 C490.445,163.365 492.724,168.065 494.124,173.007 C495.556,177.948 496.175,183.118 496.18,188.271 C496.181,189.479 496.144,190.687 496.081,191.893 C496.381,190.71 496.654,189.493 496.893,188.307 C497.383,185.892 497.745,183.446 497.992,180.986 C498.484,176.067 498.439,171.088 497.736,166.182 C496.982,161.299 495.536,156.471 493.083,152.105 C490.677,147.71 487.225,143.874 483.142,140.779 C487.537,143.392 491.514,146.891 494.531,151.185 C497.596,155.447 499.714,160.379 501.094,165.482 C502.427,170.601 503.072,175.9 503.133,181.196 C503.139,181.603 503.122,182.012 503.12,182.421 C503.603,181.181 504.027,179.912 504.423,178.626 C504.637,177.077 504.821,175.526 504.953,173.986 C505.366,168.875 505.365,163.704 504.662,158.615 C503.982,153.528 502.575,148.518 500.219,143.907 C499.019,141.617 497.566,139.457 495.896,137.446 C494.208,135.452 492.243,133.693 490.136,132.088 C492.395,133.454 494.574,135.009 496.52,136.855 C498.442,138.718 500.188,140.787 501.698,143.035 C504.35,147.075 506.245,151.601 507.551,156.279 C507.517,151.86 507.134,147.446 506.402,143.098 C505.024,135.041 502.651,127.184 499.317,119.725 C494.523,109.59 488.141,100.185 480.617,91.726 L480.746,91.314 L479.159,89.097 C474.161,82.119 455.68,63.777 439.646,48.295 C445.288,49.836 450.74,51.972 455.875,54.591 C464.252,58.9 471.914,64.319 478.751,70.464 C492.331,82.666 503.709,97.659 510.836,114.776 C517.688,131.949 520.173,150.994 516.683,169.179 M129.097,287.161 C129.488,286.719 130,286.14 130.566,285.5 C130.874,285.155 131.184,284.804 131.54,284.402 C132.747,280.533 134.377,276.75 136.396,273.159 L137.675,270.707 L139.185,268.381 L142.213,263.708 L145.644,259.303 C146.826,257.863 147.873,256.296 149.172,254.952 C151.737,252.235 154.183,249.377 156.866,246.752 L165.096,239.035 L156.285,246.12 C153.395,248.548 150.723,251.226 147.919,253.78 C146.5,255.042 145.325,256.541 144.011,257.913 L140.174,262.14 L136.703,266.693 L134.961,268.981 L133.436,271.426 C131.436,274.436 129.676,277.641 128.205,280.999 L125.28,275.43 C126.285,272.479 127.552,269.591 129.089,266.833 C129.512,266.037 129.849,265.194 130.342,264.435 L131.799,262.147 C132.78,260.622 133.727,259.069 134.739,257.559 L138.089,253.235 C139.237,251.816 140.255,250.277 141.548,248.978 L145.267,244.925 C146.536,243.598 147.691,242.152 149.076,240.942 L157.131,233.369 L148.496,240.308 C147.01,241.42 145.741,242.773 144.363,244.009 L140.294,247.808 C138.885,249.024 137.735,250.493 136.457,251.847 L132.697,255.991 C131.541,257.458 130.441,258.975 129.307,260.469 L127.619,262.726 C127.047,263.475 126.623,264.323 126.117,265.119 C125.155,266.741 124.143,268.344 123.22,270.004 L122.852,270.806 L119.974,265.323 L119.699,264.8 L121.748,260.543 C122.434,258.916 123.458,257.461 124.379,255.946 C125.34,254.454 126.209,252.897 127.248,251.446 L130.51,247.192 C131.609,245.781 132.643,244.306 133.904,243.023 L137.541,239.041 C138.769,237.727 139.922,236.328 141.276,235.136 L149.167,227.704 L140.696,234.504 C139.239,235.596 137.977,236.901 136.635,238.125 L132.65,241.852 C131.27,243.052 130.106,244.459 128.876,245.805 L125.202,249.885 C124.021,251.284 122.996,252.816 121.88,254.282 C120.8,255.773 119.625,257.207 118.761,258.856 L117.151,261.623 C115.625,260.043 114.139,258.82 112.709,257.781 C113.208,256.603 113.74,255.434 114.326,254.293 C117.401,248.092 121.622,242.407 126.202,237.062 C130.812,231.722 135.895,226.759 141.202,222.038 C135.535,226.317 130.044,230.869 124.949,235.889 C119.882,240.924 115.095,246.366 111.327,252.625 C110.715,253.616 110.139,254.64 109.585,255.679 C107.953,254.659 106.374,253.767 104.83,252.945 C105.432,251.303 106.129,249.684 106.917,248.106 C109.873,241.997 114.018,236.404 118.506,231.144 C123.032,225.895 128.028,221.02 133.238,216.376 C127.667,220.577 122.265,225.042 117.252,229.974 C112.277,234.925 107.563,240.274 103.903,246.466 C102.991,247.982 102.137,249.557 101.37,251.187 C99.829,250.423 98.303,249.687 96.804,248.984 C97.466,246.596 98.376,244.242 99.472,241.973 C102.32,235.949 106.375,230.429 110.788,225.251 C115.236,220.083 120.152,215.288 125.274,210.709 C119.792,214.841 114.468,219.228 109.534,224.081 C104.633,228.95 100.003,234.23 96.441,240.368 C95.165,242.539 94.026,244.853 93.098,247.268 C91.964,246.752 90.84,246.239 89.722,245.724 C89.48,245.614 89.244,245.504 89.001,245.391 C89.515,242.171 90.563,238.95 91.993,235.895 C94.728,229.944 98.705,224.486 103.044,219.384 C107.42,214.286 112.266,209.559 117.309,205.046 C111.906,209.117 106.655,213.433 101.791,218.214 C96.958,223.014 92.404,228.23 88.941,234.328 C87.316,237.168 85.945,240.278 85.028,243.557 C83.891,243.026 82.764,242.491 81.641,241.957 C81.665,237.929 82.725,233.763 84.483,229.875 C87.095,223.984 91.002,218.579 95.277,213.541 C99.588,208.503 104.372,203.84 109.345,199.38 C104.011,203.399 98.822,207.65 94.021,212.372 C89.254,217.111 84.763,222.275 81.409,228.351 C79.698,231.363 78.397,234.674 77.601,238.175 C77.479,238.728 77.4,239.299 77.311,239.865 C76.516,239.472 75.745,239.06 74.959,238.66 C73.953,233.952 74.865,228.709 76.943,223.915 C79.421,218.071 83.271,212.708 87.486,207.724 C91.738,202.739 96.469,198.128 101.381,193.715 C96.108,197.687 90.972,201.882 86.228,206.555 C81.521,211.246 77.08,216.365 73.844,222.441 C72.193,225.454 70.977,228.786 70.346,232.312 C70.158,233.422 70.042,234.559 69.998,235.708 C69.68,234.947 69.395,234.17 69.156,233.376 C67.24,227.307 68.151,220.453 70.707,214.225 C73.186,207.921 77.183,202.152 81.603,196.804 C86.061,191.454 91.074,186.533 96.314,181.865 C90.713,186.092 85.292,190.603 80.33,195.654 C75.407,200.717 70.8,206.275 67.575,212.822 C65.96,216.08 64.649,219.566 63.999,223.273 C63.669,225.115 63.504,227.01 63.525,228.915 C63.119,227.771 62.754,226.614 62.488,225.426 C60.898,218.697 61.847,211.43 64.39,204.7 C66.99,197.958 70.977,191.67 75.668,185.958 C80.345,180.216 85.656,174.956 91.248,170.013 C85.294,174.513 79.569,179.368 74.379,184.826 C69.178,190.259 64.561,196.383 61.231,203.36 C58.429,209.336 56.733,216.124 57.093,222.995 C56.526,221.246 56.081,219.456 55.778,217.633 C54.5,210.289 55.419,202.545 58.055,195.321 C60.702,188.092 64.811,181.322 69.694,175.169 C74.596,169.011 80.218,163.392 86.182,158.163 C79.858,162.948 73.814,168.168 68.387,174.056 C62.986,179.945 58.234,186.581 54.871,194.041 C51.635,201.248 49.964,209.379 50.626,217.519 C49.898,215.054 49.33,212.531 49.012,209.967 C47.992,202.025 48.963,193.782 51.695,186.06 C52.309,184.103 53.178,182.236 53.959,180.33 C54.897,178.497 55.722,176.596 56.805,174.827 C58.788,171.185 61.214,167.79 63.71,164.447 C68.801,157.819 74.771,151.844 81.117,146.311 C74.413,151.402 68.013,156.981 62.388,163.352 C59.626,166.572 56.909,169.874 54.608,173.487 C53.37,175.237 52.377,177.143 51.273,178.99 C50.322,180.917 49.284,182.814 48.494,184.83 C45.063,192.764 43.357,201.601 43.888,210.441 C43.931,211.212 44.015,211.983 44.094,212.753 C43.182,209.371 42.531,205.907 42.209,202.397 C41.399,193.864 42.554,185.139 45.292,176.88 C48.04,168.603 52.414,160.847 57.727,153.779 C63.026,146.684 69.292,140.284 76.05,134.461 C68.933,139.842 62.23,145.852 56.388,152.704 C50.538,159.533 45.513,167.204 42.075,175.69 C38.65,184.153 36.789,193.395 37.072,202.693 C37.127,204.757 37.3,206.818 37.551,208.874 C37.506,208.704 37.454,208.538 37.412,208.369 C36.322,203.97 35.634,199.455 35.365,194.905 C34.82,185.798 36.047,176.561 38.87,167.768 C40.331,163.389 42.127,159.105 44.28,154.979 C46.502,150.901 48.901,146.877 51.727,143.145 C57.257,135.588 63.817,128.748 70.983,122.61 C63.458,128.302 56.454,134.762 50.374,142.089 C47.276,145.707 44.579,149.658 42.038,153.714 C39.569,157.819 37.438,162.138 35.64,166.612 C32.139,175.594 30.229,185.281 30.221,195.046 C30.216,197.253 30.318,199.462 30.498,201.665 C30.296,201.384 30.103,201.099 29.904,200.818 C29.085,196.425 28.608,191.957 28.467,187.47 C28.2,177.804 29.451,168.022 32.461,158.722 C33.965,154.082 35.75,149.496 38.037,145.144 C38.56,144.033 39.15,142.955 39.774,141.894 C40.387,140.829 40.973,139.744 41.613,138.691 C42.972,136.639 44.216,134.499 45.717,132.536 C51.474,124.502 58.343,117.228 65.917,110.758 C57.987,116.784 50.664,123.684 44.351,131.499 C42.711,133.406 41.321,135.504 39.815,137.522 C39.101,138.559 38.439,139.629 37.748,140.684 C37.048,141.735 36.38,142.803 35.777,143.914 C33.177,148.245 31.059,152.866 29.22,157.592 C25.544,167.066 23.623,177.242 23.322,187.475 C23.299,188.299 23.306,189.126 23.306,189.951 C22.772,188.9 22.266,187.837 21.782,186.762 C21.63,184.542 21.539,182.31 21.525,180.08 C21.464,169.843 22.924,159.553 26.021,149.715 C26.748,147.239 27.687,144.837 28.588,142.413 C29.62,140.048 30.572,137.633 31.778,135.342 C34.025,130.67 36.753,126.235 39.703,121.949 C45.688,113.432 52.868,105.714 60.851,98.909 C52.509,105.268 44.868,112.62 38.323,120.93 C35.094,125.112 32.065,129.484 29.504,134.139 C28.139,136.422 27.027,138.839 25.831,141.219 C24.768,143.66 23.665,146.089 22.776,148.605 C19.883,156.301 17.972,164.376 17.004,172.583 C16.95,172.347 16.884,172.114 16.832,171.878 C16.037,168.295 15.54,164.642 15.325,160.954 C16.13,154.118 17.541,147.345 19.558,140.738 C22.739,130.351 27.554,120.451 33.681,111.381 C39.897,102.374 47.386,94.204 55.786,87.057 C47.028,93.757 39.068,101.569 32.29,110.38 C26.307,118.311 21.316,127.044 17.585,136.328 C18.953,130.641 20.862,125.019 23.1,119.504 C23.924,117.36 24.974,115.292 25.897,113.176 C26.888,111.087 27.982,109.035 29.019,106.958 C31.218,102.921 33.498,98.92 36.143,95.173 C41.302,87.586 47.504,80.748 54.538,74.869 C61.602,69.03 69.526,64.183 78.064,60.613 C79.179,60.134 80.306,59.682 81.443,59.25 C89.542,53.308 99.523,49.951 107.376,50.228 C110.732,50.345 113.597,51.127 115.962,52.508 C117.717,52.444 119.477,52.423 121.237,52.437 C137.585,57.753 168.686,72.368 186.93,109.612 C186.953,109.684 186.978,109.754 187,109.825 C187.959,112.946 188.838,116.097 189.678,119.259 C190.075,119.625 190.474,119.994 190.869,120.359 C190.609,119.105 190.363,117.848 190.083,116.598 C190.726,118.15 191.351,119.731 191.949,121.355 C192.731,122.076 193.507,122.792 194.278,123.502 C189.719,103.382 183.172,80.025 180.125,69.406 C182.31,62.451 185.832,56.18 190.384,51.066 C197.123,43.408 205.911,38.11 215.468,34.366 C215.146,26.696 214.875,20.51 214.682,16.446 C214.243,16.652 213.795,16.835 213.356,17.047 C207.008,20.094 200.904,23.879 195.417,28.521 C189.944,33.164 185.136,38.725 181.614,44.99 C178.371,50.732 176.316,57.009 175.465,63.321 C173.146,63.032 169.716,62.472 166.05,61.436 C164.792,60.072 163.477,58.752 162.036,57.537 C160.083,55.893 157.946,54.417 155.625,53.215 C154.467,52.611 153.257,52.095 152.023,51.632 L150.149,51.031 L148.369,50.535 C143.617,49.217 138.786,48.169 133.902,47.388 C124.136,45.823 114.159,45.409 104.211,46.142 C94.28,46.966 84.341,48.91 74.86,52.389 C65.355,55.787 56.322,60.651 48.147,66.715 C40.001,72.814 32.693,80.069 26.536,88.161 C23.389,92.165 20.631,96.437 17.982,100.759 C16.757,102.955 15.484,105.121 14.303,107.35 C13.186,109.616 11.954,111.819 10.933,114.147 C6.708,123.356 3.215,133.105 1.477,143.401 C0.521,148.521 0.074,153.776 0.01,159.047 C-0.073,164.323 0.353,169.636 1.274,174.868 C2.948,184.694 6.341,194.215 11.007,202.923 C11.22,204.052 68.585,248.878 96.767,276.985 C97.451,277.667 97.999,278.476 98.669,279.185 C99.319,279.833 99.886,280.4 100.721,281.066 C101.198,281.99 101.715,282.898 102.289,283.773 C102.517,284.128 102.792,284.46 103.043,284.807 L121.566,322.906 C117.599,313.257 117.433,300.421 129.097,287.161 M261.177,10.321 C261.217,8.915 261.016,6.833 259.898,4.693 C264.412,4.211 268.987,3.883 273.583,3.762 C280.527,3.664 287.574,3.98 294.636,5.032 C301.678,6.126 308.774,7.826 315.628,10.546 C322.45,13.306 329.122,16.882 334.995,21.62 C340.889,26.309 346.046,31.973 350.035,38.267 C350.356,38.76 350.658,39.261 350.961,39.76 C347.196,43.952 342.881,48.756 338.099,54.082 C337.005,52.34 335.863,50.641 334.628,49.042 C331.199,44.702 327.265,40.9 322.796,37.789 C313.875,31.551 303.033,27.896 291.495,26.253 C285.73,25.403 279.787,24.979 273.77,25.006 C269.557,24.975 265.327,25.124 261.056,25.416 C261.09,17.33 261.133,11.882 261.177,10.321" fill="#0A0B09"/>
    <path d="M322.831,123.537 L322.908,123.573 L322.831,123.537" fill="#FFFFFE"/>
  </g>
</svg>
